<svg id="Capa_1" enable-background="new 0 0 512 512" height="512" viewBox="0 0 512 512" width="512" xmlns="http://www.w3.org/2000/svg"><g><path d="m450.852 123.339c13.785 0 25.001-11.216 25.001-25.001v-73.337c0-13.785-11.216-25.001-25.001-25.001h-47.288c-4.143 0-7.5 3.357-7.5 7.5s3.357 7.5 7.5 7.5h47.288c5.515 0 10.001 4.486 10.001 10.001v73.337c0 5.515-4.486 10.001-10.001 10.001h-70.607v-31.168h36.014c9.156 0 16.605-7.449 16.605-16.606v-12.126c0-9.157-7.449-16.606-16.605-16.606h-320.516c-9.157 0-16.606 7.449-16.606 16.606v12.125c0 9.157 7.449 16.606 16.606 16.606h42.445v31.168h-77.039c-5.515 0-10.002-4.486-10.002-10.001v-73.336c0-5.515 4.488-10.001 10.002-10.001h312.427c4.143 0 7.5-3.357 7.5-7.5s-3.357-7.5-7.5-7.5h-312.427c-13.786 0-25.002 11.216-25.002 25.001v73.337c0 13.785 11.216 25.001 25.002 25.001h77.039v117.668c0 4.143 3.357 7.5 7.5 7.5s7.5-3.357 7.5-7.5v-163.836h13.161v241.009c0 4.143 3.357 7.5 7.5 7.5 18.836 0 34.16 15.324 34.16 34.16 0 4.143 3.357 7.5 7.5 7.5h87.413c4.143 0 7.5-3.357 7.5-7.5 0-14.152 8.836-26.831 21.834-31.865l2.666 5.154c.326.633.422 1.184-.046 1.752-10.496 12.753-14.858 29.547-12.251 45.621h-167.348c-1.151 0-2.089-.938-2.089-2.089v-107.42c0-4.143-3.357-7.5-7.5-7.5s-7.5 3.357-7.5 7.5v107.419c0 9.423 7.666 17.089 17.089 17.089h171.33c.784 3.4 1.226 6.869 1.308 10.365l.741 35.725h-7.11c-9.162 0-16.339 8.548-16.339 19.46v31.489c0 10.912 7.177 19.46 16.339 19.46h36.204c4.143 0 7.5-3.357 7.5-7.5s-3.357-7.5-7.5-7.5h-36c-.519-.376-1.543-1.979-1.543-4.46v-31.489c0-2.48 1.024-4.084 1.543-4.46h109.987c.519.376 1.543 1.979 1.543 4.46v31.489c0 2.48-1.024 4.084-1.543 4.46h-44c-4.143 0-7.5 3.357-7.5 7.5s3.357 7.5 7.5 7.5h44.204c9.162 0 16.339-8.548 16.339-19.46v-31.489c0-10.912-7.177-19.46-16.339-19.46h-11.243v-32.21c0-6.092 1.817-11.971 5.256-17.001l35.633-52.136c17.593-25.741 14.134-60.194-8.227-81.923l-73.117-71.056v-63.926zm-85.608 138.241-13.16-13.682v-170.727h13.16zm-269.501-199.409c-.886 0-1.606-.721-1.606-1.606v-12.126c0-.886.721-1.606 1.606-1.606h320.515c.885 0 1.605.721 1.605 1.606v12.125c0 .886-.721 1.606-1.605 1.606-46.876.001-310.222.001-320.515.001zm200.26 290.169h-73.564c-3.246-21.114-19.975-37.843-41.089-41.089v-234.08h155.734v155.737c-9.776-7.053-23.552-6.3-32.519 2.462-8.032 7.848-9.962 19.82-4.802 29.794l25.575 49.438c-15.587 6.648-26.735 21.031-29.335 37.738zm146.905-83.261c17.113 16.63 19.761 43 6.295 62.7l-35.633 52.137c-5.149 7.534-7.871 16.34-7.871 25.465v32.21h-62.04l-.748-36.055c-.162-6.969-1.409-13.838-3.706-20.416-4.824-13.812-2.044-29.41 7.253-40.706 4.28-5.199 4.96-12.352 1.747-18.258l-35.119-67.886c-2.107-4.074-1.319-8.967 1.962-12.173 4.189-4.094 10.779-3.859 14.711.228l65.567 68.166c2.872 2.986 7.62 3.079 10.604.206 2.985-2.871 3.077-7.619.206-10.604l-25.893-26.919v-68.993z"/><path d="m181.996 362.843c4.143 0 7.5-3.357 7.5-7.5s-3.357-7.5-7.5-7.5h-1.879c-4.143 0-7.5 3.357-7.5 7.5s3.357 7.5 7.5 7.5z"/><path d="m302.617 214.865c.228-.455 3.812-7.741 4.777-17.44h3.452c4.143 0 7.5-3.357 7.5-7.5s-3.357-7.5-7.5-7.5h-4.502c-.113-.429-.228-.858-.357-1.288-2.646-8.786-10.146-15.349-19.572-17.124-8.656-1.633-17.028 1.181-21.858 7.338-2.26 2.881-4.332 6.39-6.484 11.074h-30.925c.48-3.245 1.61-5.717 4.165-9.622 2.268-3.466 1.296-8.114-2.171-10.382-3.465-2.267-8.113-1.296-10.382 2.171-4.415 6.749-6.111 11.67-6.682 17.833h-4.49c-4.143 0-7.5 3.357-7.5 7.5s3.357 7.5 7.5 7.5h5.188c3.151 12.253 13.634 20.106 23.972 21.844 1.616.271 3.212.404 4.779.403 11.373 0 21.177-6.981 25.224-18.429.444-1.257.906-2.537 1.381-3.818h24.175c-.857 6.043-3.047 10.61-3.11 10.74-1.837 3.697-.34 8.188 3.354 10.041 3.701 1.856 8.208.362 10.066-3.341zm-63.383-10.389c-3.903-.656-8.002-3.05-10.377-7.051h23.271c-3.358 7.711-10.068 7.53-12.894 7.051zm37.124-23.868c1.34-1.708 4.199-2.437 7.277-1.855 2.173.409 4.667 1.575 6.371 3.672h-14.936c.423-.65.852-1.26 1.288-1.817z"/><path d="m259.216 261.765c-4.143 0-7.5 3.357-7.5 7.5v19.503c0 4.143 3.357 7.5 7.5 7.5s7.5-3.357 7.5-7.5v-19.503c0-4.143-3.358-7.5-7.5-7.5z"/><path d="m259.216 119.104c4.143 0 7.5-3.357 7.5-7.5v-19.503c0-4.143-3.357-7.5-7.5-7.5s-7.5 3.357-7.5 7.5v19.503c0 4.142 3.357 7.5 7.5 7.5z"/></g></svg>

