<svg id="Layer_1" enable-background="new 0 0 512 512" height="512" viewBox="0 0 512 512" width="512" xmlns="http://www.w3.org/2000/svg"><g><path d="m265.614 30.445c-96.465-33.674-201.962 17.228-235.636 113.693-31.255 89.536 10.362 186.843 93.637 227.287 3.583-3.984 7.371-7.763 11.263-11.444-51.798-48.515-73.147-124.752-48.252-196.069 30.307-86.819 118.792-136.717 206.509-121.282-8.695-4.722-17.876-8.818-27.521-12.185z" fill="#cee1f2"/><path d="m387.009 166.078c-10.492 3.457-21.796-2.248-25.252-12.74-22.328-67.791-85.324-113.338-156.757-113.338-90.981 0-165 74.019-165 165 0 60.604 33.128 116.22 86.456 145.146 9.709 5.266 13.311 17.407 8.044 27.116-3.623 6.679-10.499 10.467-17.598 10.468-3.222 0-6.488-.78-9.519-2.424-66.236-35.927-107.383-105.017-107.383-180.306 0-113.038 91.962-205 205-205 44.018 0 85.976 13.746 121.338 39.752 34.637 25.472 60.021 60.422 73.41 101.073 3.456 10.491-2.248 21.798-12.739 25.253zm-125.009 68.922c0-13.637-6.054-26.824-16.609-36.18-10.055-8.912-23.333-13.82-37.391-13.82-9.691 0-17-4.299-17-10 0-5.514 4.486-10 10-10 7.104 0 15.745.804 30.751 6.64 10.296 4.002 21.885-1.097 25.889-11.391 4.003-10.295-1.097-21.886-11.391-25.889-6.405-2.491-12.113-4.331-17.249-5.686v-4.674c0-11.046-8.954-20-20-20s-20 8.954-20 20v2.456c-21.794 5.389-38 25.109-38 48.544 0 28.505 24.505 50 57 50 7.589 0 14 4.58 14 10s-4.809 10-10.5 10c-4.18 0-18.457-1.363-34.112-7.585-10.263-4.08-21.894.934-25.973 11.198-4.08 10.265.933 21.893 11.198 25.973 9.148 3.636 18.239 6.163 26.388 7.816v2.598c0 11.046 8.954 20 20 20s20-8.954 20-20v-3.096c19.245-7.062 32.999-25.423 32.999-46.904zm230 143c-11.046 0-20 8.954-20 20v94c0 11.046 8.954 20 20 20s20-8.954 20-20v-94c0-11.046-8.954-20-20-20zm-80 23c-11.046 0-20 8.954-20 20v71c0 11.046 8.954 20 20 20s20-8.954 20-20v-71c0-11.046-8.954-20-20-20zm-80 44c-11.046 0-20 8.954-20 20v27c0 11.046 8.954 20 20 20s20-8.954 20-20v-27c0-11.046-8.954-20-20-20zm-80-17c-11.046 0-20 8.954-20 20v44c0 11.046 8.954 20 20 20s20-8.954 20-20v-44c0-11.046-8.954-20-20-20z" fill="#1428bf"/><path d="m101.591 512c-5.142 0-10.281-1.97-14.19-5.906-7.784-7.837-7.741-20.5.096-28.284l115.958-115.176c.234-.233.475-.459.72-.681 25.344-22.792 63.093-24.077 89.915-3.107l1.683 1.232c.201.146.399.297.594.452 12.38 9.791 30.35 8.271 40.908-3.462.095-.105.191-.209.288-.312l70.859-75.447c7.562-8.051 20.219-8.449 28.271-.886 8.052 7.562 8.448 20.219.887 28.27l-70.726 75.305c-24.567 27.12-66.164 30.68-94.98 8.158l-1.685-1.234c-.201-.146-.398-.297-.594-.452-11.39-9.008-27.447-8.592-38.346.938l-115.564 114.782c-3.901 3.874-8.998 5.81-14.094 5.81zm410.409-194v-54c0-33.084-26.916-60-60-60h-54c-11.046 0-20 8.954-20 20s8.954 20 20 20h54c11.028 0 20 8.972 20 20v54c0 11.046 8.954 20 20 20s20-8.954 20-20z" fill="#df5cf0"/></g></svg>

