<svg id="Capa_1" enable-background="new 0 0 512 512" height="512" viewBox="0 0 512 512" width="512" xmlns="http://www.w3.org/2000/svg"><g><path d="m230.812 249.457c-.728-.55-.881-1.579-.347-2.318 7.682-10.622 59.02-83.871 88.834-183.452.265-.885 1.195-1.388 2.081-1.126l133.036 39.41c-37.539 126.719-102.689 217.403-111.975 229.932-.267.36-.666.598-1.109.661s-.894-.053-1.25-.324l-54.572-41.45z" fill="#78c2a4"/><path d="m454.416 101.97-23.695-7.019c-38.132 123.722-101.567 211.472-109.892 222.665l19.252 14.623c.357.271.807.388 1.25.324.443-.063.843-.302 1.109-.661 9.287-12.529 74.437-103.213 111.976-229.932z" fill="#66b394"/><path d="m173.408 441.411 13.512 3.898c110.196 31.792 228.98 7.228 317.528-65.663 9.686-7.973 10.12-22.656.922-31.187l-.418-.388c-9.38-8.701-23.268-10.103-34.098-3.514l-44.424 27.024c-44.974 27.358-99.785 33.296-149.574 16.205-20.55-7.054-24.435-34.435-6.658-46.927l46.202-32.469c8.713-6.123 10.953-18.077 5.048-26.94-4.484-6.73-12.638-10.02-20.538-8.287l-127.503 27.972-21.033 22.712v96.389z" fill="#f1d0a5"/><path d="m270.198 340.857 46.202-32.467c8.479-5.958 10.805-17.431 5.483-26.211-1.365 2.252-3.194 4.269-5.483 5.878l-46.202 32.467c-10.977 7.714-13.685 21.101-9.319 31.877 1.818-4.407 4.898-8.436 9.319-11.544z" fill="#f1b986"/><path d="m509.318 353.474c-1.217 2.162-2.824 4.156-4.87 5.84-75.167 61.876-172.122 88.921-267.117 76.234-24.907-3.327-43.502-24.591-43.502-49.719v-89.173l-20.422 4.48v119.942 20.333l13.512 3.898c2.294.662 4.594 1.29 6.895 1.904.005.001.01.003.014.004 108.231 28.83 223.918 3.8 310.619-67.57 7.982-6.57 9.665-17.688 4.871-26.173z" fill="#f1b986"/><path d="m114.197 481.997-102.897 3.583c-6.176.215-11.3-4.734-11.3-10.914v-203.973c0-6.18 5.124-11.128 11.3-10.913l102.897 3.582c5.88.205 10.54 5.03 10.54 10.913v196.808c0 5.884-4.661 10.709-10.54 10.914z" fill="#dd636e"/><path d="m114.197 263.362-8.204-.286v219.206l8.204-.286c5.88-.204 10.54-5.03 10.54-10.913v-196.808c0-5.883-4.661-10.708-10.54-10.913z" fill="#c63d4f"/><path d="m124.737 466.296h37.115c6.382 0 11.556-5.174 11.556-11.556v-164.121c0-6.382-5.174-11.556-11.556-11.556h-37.115z" fill="#ecf4ff"/><path d="m161.852 279.063h-16.694c6.382 0 11.556 5.174 11.556 11.556v164.121c0 6.382-5.174 11.556-11.556 11.556h16.694c6.382 0 11.556-5.174 11.556-11.556v-164.121c0-6.382-5.174-11.556-11.556-11.556z" fill="#ddeafb"/><g><path d="m85.799 450.149c-4.268 0-7.726-3.459-7.726-7.726v-23.057c0-4.268 3.459-7.726 7.726-7.726 4.268 0 7.726 3.459 7.726 7.726v23.057c.001 4.267-3.458 7.726-7.726 7.726z" fill="#ecf4ff"/></g><circle cx="254.654" cy="161.369" fill="#f6e266" r="59.225"/><path d="m313.879 161.369c0-32.709-26.516-59.225-59.225-59.225-4.963 0-9.78.619-14.386 1.769 25.755 6.428 44.839 29.71 44.839 57.456 0 27.747-19.083 51.028-44.839 57.457 4.607 1.15 9.424 1.769 14.386 1.769 32.709-.001 59.225-26.517 59.225-59.226z" fill="#ecbe6b"/><circle cx="401.929" cy="256.898" fill="#f6e266" r="59.225"/><path d="m401.929 197.672c-4.963 0-9.78.619-14.387 1.769 25.755 6.428 44.839 29.71 44.839 57.456 0 27.747-19.083 51.028-44.839 57.457 4.607 1.15 9.424 1.769 14.387 1.769 32.709 0 59.225-26.516 59.225-59.226.001-32.708-26.515-59.225-59.225-59.225z" fill="#ecbe6b"/><circle cx="452.775" cy="85.639" fill="#f6e266" r="59.225"/><path d="m452.775 26.414c-4.963 0-9.78.619-14.387 1.769 25.755 6.428 44.839 29.71 44.839 57.456 0 27.747-19.083 51.028-44.839 57.457 4.607 1.15 9.424 1.769 14.387 1.769 32.709 0 59.225-26.516 59.225-59.226 0-32.709-26.516-59.225-59.225-59.225z" fill="#ecbe6b"/></g></svg>

